<?xml version="1.0" standalone="no"?>
<!DOCTYPE svg PUBLIC "-//W3C//DTD SVG 20010904//EN"
 "http://www.w3.org/TR/2001/REC-SVG-20010904/DTD/svg10.dtd">
<svg version="1.0" xmlns="http://www.w3.org/2000/svg"
 width="96.000000pt" height="96.000000pt" viewBox="0 0 96.000000 96.000000"
 preserveAspectRatio="xMidYMid meet">
<metadata>
Created by potrace 1.14, written by Peter Selinger 2001-2017
</metadata>
<g transform="translate(0.000000,96.000000) scale(0.100000,-0.100000)"
fill="#000000" stroke="none">
<path d="M444 890 c-23 -9 -74 -65 -75 -83 0 -7 -2 -21 -4 -32 -2 -11 5 -39
15 -63 15 -33 29 -47 60 -60 l40 -17 0 -67 c0 -67 0 -68 -34 -82 -31 -13 -67
-53 -78 -86 -3 -9 -18 -15 -41 -15 -33 -1 -37 1 -37 25 0 38 -18 50 -72 50
-50 0 -68 -16 -68 -58 0 -14 -6 -19 -23 -18 -30 3 -61 -12 -75 -35 -8 -13 -13
-60 -13 -132 0 -104 2 -112 25 -135 l24 -25 392 0 391 0 25 25 c24 24 26 31
26 131 0 59 -3 114 -6 124 -12 37 -46 47 -165 48 -63 0 -116 5 -118 10 -12 36
-49 78 -78 91 l-35 14 0 68 1 67 39 18 c91 42 97 166 11 224 -35 24 -88 29
-127 13z m111 -46 c46 -30 49 -109 5 -149 -30 -28 -95 -25 -124 5 -43 43 -36
121 11 149 27 15 81 13 108 -5z m6 -413 c16 -16 29 -33 29 -38 0 -5 -40 -9
-90 -8 -100 0 -109 7 -59 49 41 35 83 34 120 -3z m-313 -28 c-3 -16 -12 -19
-48 -14 -5 0 -10 8 -10 16 0 10 10 15 31 15 24 0 30 -4 27 -17z m623 -70 c16
-16 16 -210 0 -226 -15 -15 -767 -15 -783 1 -18 18 -14 213 4 226 23 17 763
15 779 -1z"/>
</g>
</svg>
